# Generated by obj-loader 

mtllib curve.mtl 

# Vertexes 
v 0.015624 0.493121 0.000000
v 0.046653 0.485060 0.000000
v 0.077078 0.476136 0.000000
v 0.106881 0.466366 0.000000
v 0.136049 0.455766 0.000000
v 0.164564 0.444351 0.000000
v 0.192411 0.432137 0.000000
v 0.219573 0.419142 0.000000
v 0.246034 0.405379 0.000000
v 0.271776 0.390866 0.000000
v 0.296784 0.375617 0.000000
v 0.321040 0.359650 0.000000
v 0.344525 0.342979 0.000000
v 0.367223 0.325621 0.000000
v 0.389114 0.307592 0.000000
v 0.410179 0.288908 0.000000
v 0.430399 0.269587 0.000000
v 0.449755 0.249644 0.000000
v 0.468225 0.229097 0.000000
v 0.485789 0.207965 0.000000
v 0.502426 0.186266 0.000000
v 0.518112 0.164018 0.000000
v 0.532827 0.141243 0.000000
v 0.546547 0.117961 0.000000
v 0.559249 0.094195 0.000000
v 0.570911 0.069968 0.000000
v 0.581508 0.045305 0.000000
v 0.591019 0.020233 0.000000
v 0.599420 -0.005222 0.000000
v 0.606690 -0.031029 0.000000
v 0.612322 -0.097070 0.000000
v 0.605103 -0.129955 0.000000
v 0.596475 -0.162199 0.000000
v 0.586507 -0.193773 0.000000
v 0.575268 -0.224652 0.000000
v 0.562826 -0.254810 0.000000
v 0.549246 -0.284228 0.000000
v 0.534594 -0.312886 0.000000
v 0.518931 -0.340768 0.000000
v 0.502320 -0.367857 0.000000
v 0.484821 -0.394137 0.000000
v 0.466490 -0.419595 0.000000
v 0.447383 -0.444216 0.000000
v 0.427556 -0.467986 0.000000
v 0.407061 -0.490890 0.000000
v 0.385949 -0.512915 0.000000
v 0.364268 -0.534047 0.000000
v 0.342068 -0.554269 0.000000
v 0.319394 -0.573566 0.000000
v 0.296291 -0.591923 0.000000
v 0.272801 -0.609322 0.000000
v 0.248965 -0.625744 0.000000
v 0.224821 -0.641171 0.000000
v 0.200407 -0.655581 0.000000
v 0.175758 -0.668951 0.000000
v 0.150903 -0.681257 0.000000
v 0.125873 -0.692470 0.000000
v 0.100695 -0.702559 0.000000
v 0.075391 -0.711488 0.000000
v 0.049983 -0.719215 0.000000
v -0.013789 -0.726152 0.000000
v -0.058276 -0.717858 0.000000
v -0.100892 -0.707274 0.000000
v -0.141612 -0.694439 0.000000
v -0.180403 -0.679403 0.000000
v -0.217217 -0.662227 0.000000
v -0.252001 -0.642987 0.000000
v -0.284699 -0.621777 0.000000
v -0.315260 -0.598709 0.000000
v -0.343637 -0.573910 0.000000
v -0.369798 -0.547521 0.000000
v -0.393725 -0.519689 0.000000
v -0.415419 -0.490566 0.000000
v -0.434896 -0.460302 0.000000
v -0.452189 -0.429041 0.000000
v -0.467341 -0.396918 0.000000
v -0.480407 -0.364059 0.000000
v -0.491446 -0.330578 0.000000
v -0.500521 -0.296579 0.000000
v -0.507695 -0.262157 0.000000
v -0.513032 -0.227397 0.000000
v -0.516591 -0.192380 0.000000
v -0.518430 -0.157180 0.000000
v -0.518604 -0.121867 0.000000
v -0.517161 -0.086509 0.000000
v -0.514148 -0.051170 0.000000
v -0.509610 -0.015916 0.000000
v -0.503585 0.019192 0.000000
v -0.496111 0.054090 0.000000
v -0.487220 0.088714 0.000000
v -0.462931 0.149878 0.000000
v -0.451272 0.165776 0.000000
v -0.439752 0.181420 0.000000
v -0.428334 0.196813 0.000000
v -0.416979 0.211962 0.000000
v -0.405650 0.226869 0.000000
v -0.394307 0.241537 0.000000
v -0.382911 0.255965 0.000000
v -0.371419 0.270157 0.000000
v -0.359794 0.284106 0.000000
v -0.347995 0.297810 0.000000
v -0.335981 0.311260 0.000000
v -0.323712 0.324447 0.000000
v -0.311152 0.337357 0.000000
v -0.298264 0.349974 0.000000
v -0.285015 0.362277 0.000000
v -0.271374 0.374245 0.000000
v -0.257317 0.385852 0.000000
v -0.242819 0.397073 0.000000
v -0.227866 0.407881 0.000000
v -0.212441 0.418249 0.000000
v -0.196537 0.428152 0.000000
v -0.180148 0.437568 0.000000
v -0.163271 0.446477 0.000000
v -0.145903 0.454864 0.000000
v -0.128042 0.462718 0.000000
v -0.109687 0.470032 0.000000
v -0.090832 0.476803 0.000000
v -0.071470 0.483034 0.000000
v -0.051591 0.488727 0.000000
v -0.034374 0.299471 0.000000
v -0.009338 0.293057 0.000000
v 0.015083 0.285987 0.000000
v 0.038879 0.278282 0.000000
v 0.062040 0.269963 0.000000
v 0.084559 0.261050 0.000000
v 0.106422 0.251566 0.000000
v 0.127625 0.241531 0.000000
v 0.148155 0.230967 0.000000
v 0.168005 0.219894 0.000000
v 0.187166 0.208333 0.000000
v 0.205631 0.196307 0.000000
v 0.223391 0.183836 0.000000
v 0.240439 0.170941 0.000000
v 0.256769 0.157642 0.000000
v 0.272373 0.143962 0.000000
v 0.287246 0.129919 0.000000
v 0.301381 0.115535 0.000000
v 0.314775 0.100829 0.000000
v 0.327422 0.085819 0.000000
v 0.339318 0.070524 0.000000
v 0.350461 0.054963 0.000000
v 0.360846 0.039152 0.000000
v 0.370471 0.023107 0.000000
v 0.379334 0.006842 0.000000
v 0.387432 -0.009629 0.000000
v 0.394763 -0.026293 0.000000
v 0.401325 -0.043140 0.000000
v 0.407114 -0.060161 0.000000
v 0.412127 -0.077348 0.000000
v 0.416844 -0.054782 0.000000
v 0.411748 -0.078828 0.000000
v 0.405582 -0.102533 0.000000
v 0.398382 -0.125882 0.000000
v 0.390186 -0.148858 0.000000
v 0.381030 -0.171442 0.000000
v 0.370954 -0.193609 0.000000
v 0.359997 -0.215336 0.000000
v 0.348203 -0.236596 0.000000
v 0.335615 -0.257361 0.000000
v 0.322278 -0.277605 0.000000
v 0.308240 -0.297296 0.000000
v 0.293550 -0.316406 0.000000
v 0.278259 -0.334906 0.000000
v 0.262418 -0.352765 0.000000
v 0.246083 -0.369955 0.000000
v 0.229308 -0.386446 0.000000
v 0.212152 -0.402210 0.000000
v 0.194672 -0.417219 0.000000
v 0.176931 -0.431445 0.000000
v 0.158989 -0.444862 0.000000
v 0.140912 -0.457445 0.000000
v 0.122766 -0.469169 0.000000
v 0.104619 -0.480011 0.000000
v 0.086542 -0.489952 0.000000
v 0.068609 -0.498973 0.000000
v 0.050895 -0.507057 0.000000
v 0.033478 -0.514193 0.000000
v 0.016442 -0.520373 0.000000
v -0.000132 -0.525595 0.000000
v 0.022123 -0.529403 0.000000
v -0.010900 -0.523550 0.000000
v -0.041685 -0.516238 0.000000
v -0.070315 -0.507579 0.000000
v -0.096881 -0.497678 0.000000
v -0.121489 -0.486624 0.000000
v -0.144249 -0.474495 0.000000
v -0.165275 -0.461347 0.000000
v -0.184678 -0.447222 0.000000
v -0.202561 -0.432145 0.000000
v -0.219014 -0.416128 0.000000
v -0.234112 -0.399174 0.000000
v -0.247914 -0.381286 0.000000
v -0.260460 -0.362464 0.000000
v -0.271777 -0.342717 0.000000
v -0.281878 -0.322063 0.000000
v -0.290766 -0.300528 0.000000
v -0.298440 -0.278149 0.000000
v -0.304896 -0.254976 0.000000
v -0.310127 -0.231066 0.000000
v -0.314128 -0.206485 0.000000
v -0.316898 -0.181305 0.000000
v -0.318437 -0.155604 0.000000
v -0.318748 -0.129465 0.000000
v -0.317839 -0.102973 0.000000
v -0.315722 -0.076213 0.000000
v -0.312412 -0.049275 0.000000
v -0.307925 -0.022248 0.000000
v -0.302284 0.004780 0.000000
v -0.295513 0.031719 0.000000
v -0.301652 0.031603 0.000000
v -0.290224 0.047186 0.000000
v -0.279110 0.062280 0.000000
v -0.268285 0.076879 0.000000
v -0.257725 0.090974 0.000000
v -0.247407 0.104561 0.000000
v -0.237310 0.117634 0.000000
v -0.227410 0.130190 0.000000
v -0.217687 0.142225 0.000000
v -0.208120 0.153742 0.000000
v -0.198687 0.164742 0.000000
v -0.189367 0.175229 0.000000
v -0.180138 0.185212 0.000000
v -0.170976 0.194701 0.000000
v -0.161854 0.203712 0.000000
v -0.152746 0.212260 0.000000
v -0.143619 0.220366 0.000000
v -0.134438 0.228052 0.000000
v -0.125164 0.235342 0.000000
v -0.115752 0.242259 0.000000
v -0.106155 0.248829 0.000000
v -0.096319 0.255074 0.000000
v -0.086189 0.261013 0.000000
v -0.075707 0.266664 0.000000
v -0.064814 0.272040 0.000000
v -0.053449 0.277149 0.000000
v -0.041553 0.281995 0.000000
v -0.029070 0.286578 0.000000
v -0.015945 0.290896 0.000000
v -0.002128 0.294940 0.000000
# Normals 
vn 0.000000 0.000000 1.000000
# UV Mapping 
vt 0.000000 0.000000
vt 1.000000 0.000000
vt 0.000000 1.000000
vt 1.000000 1.000000

 # Groups 
g defaultMesh
usemtl default

 # Faces 
f 1/1/1 121/3/1 122/4/1 
f 122/4/1 2/2/1 1/1/1 
f 2/1/1 122/3/1 123/4/1 
f 123/4/1 3/2/1 2/1/1 
f 3/1/1 123/3/1 124/4/1 
f 124/4/1 4/2/1 3/1/1 
f 4/1/1 124/3/1 125/4/1 
f 125/4/1 5/2/1 4/1/1 
f 5/1/1 125/3/1 126/4/1 
f 126/4/1 6/2/1 5/1/1 
f 6/1/1 126/3/1 127/4/1 
f 127/4/1 7/2/1 6/1/1 
f 7/1/1 127/3/1 128/4/1 
f 128/4/1 8/2/1 7/1/1 
f 8/1/1 128/3/1 129/4/1 
f 129/4/1 9/2/1 8/1/1 
f 9/1/1 129/3/1 130/4/1 
f 130/4/1 10/2/1 9/1/1 
f 10/1/1 130/3/1 131/4/1 
f 131/4/1 11/2/1 10/1/1 
f 11/1/1 131/3/1 132/4/1 
f 132/4/1 12/2/1 11/1/1 
f 12/1/1 132/3/1 133/4/1 
f 133/4/1 13/2/1 12/1/1 
f 13/1/1 133/3/1 134/4/1 
f 134/4/1 14/2/1 13/1/1 
f 14/1/1 134/3/1 135/4/1 
f 135/4/1 15/2/1 14/1/1 
f 15/1/1 135/3/1 136/4/1 
f 136/4/1 16/2/1 15/1/1 
f 16/1/1 136/3/1 137/4/1 
f 137/4/1 17/2/1 16/1/1 
f 17/1/1 137/3/1 138/4/1 
f 138/4/1 18/2/1 17/1/1 
f 18/1/1 138/3/1 139/4/1 
f 139/4/1 19/2/1 18/1/1 
f 19/1/1 139/3/1 140/4/1 
f 140/4/1 20/2/1 19/1/1 
f 20/1/1 140/3/1 141/4/1 
f 141/4/1 21/2/1 20/1/1 
f 21/1/1 141/3/1 142/4/1 
f 142/4/1 22/2/1 21/1/1 
f 22/1/1 142/3/1 143/4/1 
f 143/4/1 23/2/1 22/1/1 
f 23/1/1 143/3/1 144/4/1 
f 144/4/1 24/2/1 23/1/1 
f 24/1/1 144/3/1 145/4/1 
f 145/4/1 25/2/1 24/1/1 
f 25/1/1 145/3/1 146/4/1 
f 146/4/1 26/2/1 25/1/1 
f 26/1/1 146/3/1 147/4/1 
f 147/4/1 27/2/1 26/1/1 
f 27/1/1 147/3/1 148/4/1 
f 148/4/1 28/2/1 27/1/1 
f 28/1/1 148/3/1 149/4/1 
f 149/4/1 29/2/1 28/1/1 
f 29/1/1 149/3/1 150/4/1 
f 150/4/1 30/2/1 29/1/1 
f 30/1/1 150/3/1 151/4/1 
f 151/4/1 31/2/1 30/1/1 
f 31/1/1 151/3/1 152/4/1 
f 152/4/1 32/2/1 31/1/1 
f 32/1/1 152/3/1 153/4/1 
f 153/4/1 33/2/1 32/1/1 
f 33/1/1 153/3/1 154/4/1 
f 154/4/1 34/2/1 33/1/1 
f 34/1/1 154/3/1 155/4/1 
f 155/4/1 35/2/1 34/1/1 
f 35/1/1 155/3/1 156/4/1 
f 156/4/1 36/2/1 35/1/1 
f 36/1/1 156/3/1 157/4/1 
f 157/4/1 37/2/1 36/1/1 
f 37/1/1 157/3/1 158/4/1 
f 158/4/1 38/2/1 37/1/1 
f 38/1/1 158/3/1 159/4/1 
f 159/4/1 39/2/1 38/1/1 
f 39/1/1 159/3/1 160/4/1 
f 160/4/1 40/2/1 39/1/1 
f 40/1/1 160/3/1 161/4/1 
f 161/4/1 41/2/1 40/1/1 
f 41/1/1 161/3/1 162/4/1 
f 162/4/1 42/2/1 41/1/1 
f 42/1/1 162/3/1 163/4/1 
f 163/4/1 43/2/1 42/1/1 
f 43/1/1 163/3/1 164/4/1 
f 164/4/1 44/2/1 43/1/1 
f 44/1/1 164/3/1 165/4/1 
f 165/4/1 45/2/1 44/1/1 
f 45/1/1 165/3/1 166/4/1 
f 166/4/1 46/2/1 45/1/1 
f 46/1/1 166/3/1 167/4/1 
f 167/4/1 47/2/1 46/1/1 
f 47/1/1 167/3/1 168/4/1 
f 168/4/1 48/2/1 47/1/1 
f 48/1/1 168/3/1 169/4/1 
f 169/4/1 49/2/1 48/1/1 
f 49/1/1 169/3/1 170/4/1 
f 170/4/1 50/2/1 49/1/1 
f 50/1/1 170/3/1 171/4/1 
f 171/4/1 51/2/1 50/1/1 
f 51/1/1 171/3/1 172/4/1 
f 172/4/1 52/2/1 51/1/1 
f 52/1/1 172/3/1 173/4/1 
f 173/4/1 53/2/1 52/1/1 
f 53/1/1 173/3/1 174/4/1 
f 174/4/1 54/2/1 53/1/1 
f 54/1/1 174/3/1 175/4/1 
f 175/4/1 55/2/1 54/1/1 
f 55/1/1 175/3/1 176/4/1 
f 176/4/1 56/2/1 55/1/1 
f 56/1/1 176/3/1 177/4/1 
f 177/4/1 57/2/1 56/1/1 
f 57/1/1 177/3/1 178/4/1 
f 178/4/1 58/2/1 57/1/1 
f 58/1/1 178/3/1 179/4/1 
f 179/4/1 59/2/1 58/1/1 
f 59/1/1 179/3/1 180/4/1 
f 180/4/1 60/2/1 59/1/1 
f 60/1/1 180/3/1 181/4/1 
f 181/4/1 61/2/1 60/1/1 
f 61/1/1 181/3/1 182/4/1 
f 182/4/1 62/2/1 61/1/1 
f 62/1/1 182/3/1 183/4/1 
f 183/4/1 63/2/1 62/1/1 
f 63/1/1 183/3/1 184/4/1 
f 184/4/1 64/2/1 63/1/1 
f 64/1/1 184/3/1 185/4/1 
f 185/4/1 65/2/1 64/1/1 
f 65/1/1 185/3/1 186/4/1 
f 186/4/1 66/2/1 65/1/1 
f 66/1/1 186/3/1 187/4/1 
f 187/4/1 67/2/1 66/1/1 
f 67/1/1 187/3/1 188/4/1 
f 188/4/1 68/2/1 67/1/1 
f 68/1/1 188/3/1 189/4/1 
f 189/4/1 69/2/1 68/1/1 
f 69/1/1 189/3/1 190/4/1 
f 190/4/1 70/2/1 69/1/1 
f 70/1/1 190/3/1 191/4/1 
f 191/4/1 71/2/1 70/1/1 
f 71/1/1 191/3/1 192/4/1 
f 192/4/1 72/2/1 71/1/1 
f 72/1/1 192/3/1 193/4/1 
f 193/4/1 73/2/1 72/1/1 
f 73/1/1 193/3/1 194/4/1 
f 194/4/1 74/2/1 73/1/1 
f 74/1/1 194/3/1 195/4/1 
f 195/4/1 75/2/1 74/1/1 
f 75/1/1 195/3/1 196/4/1 
f 196/4/1 76/2/1 75/1/1 
f 76/1/1 196/3/1 197/4/1 
f 197/4/1 77/2/1 76/1/1 
f 77/1/1 197/3/1 198/4/1 
f 198/4/1 78/2/1 77/1/1 
f 78/1/1 198/3/1 199/4/1 
f 199/4/1 79/2/1 78/1/1 
f 79/1/1 199/3/1 200/4/1 
f 200/4/1 80/2/1 79/1/1 
f 80/1/1 200/3/1 201/4/1 
f 201/4/1 81/2/1 80/1/1 
f 81/1/1 201/3/1 202/4/1 
f 202/4/1 82/2/1 81/1/1 
f 82/1/1 202/3/1 203/4/1 
f 203/4/1 83/2/1 82/1/1 
f 83/1/1 203/3/1 204/4/1 
f 204/4/1 84/2/1 83/1/1 
f 84/1/1 204/3/1 205/4/1 
f 205/4/1 85/2/1 84/1/1 
f 85/1/1 205/3/1 206/4/1 
f 206/4/1 86/2/1 85/1/1 
f 86/1/1 206/3/1 207/4/1 
f 207/4/1 87/2/1 86/1/1 
f 87/1/1 207/3/1 208/4/1 
f 208/4/1 88/2/1 87/1/1 
f 88/1/1 208/3/1 209/4/1 
f 209/4/1 89/2/1 88/1/1 
f 89/1/1 209/3/1 210/4/1 
f 210/4/1 90/2/1 89/1/1 
f 90/1/1 210/3/1 211/4/1 
f 211/4/1 91/2/1 90/1/1 
f 91/1/1 211/3/1 212/4/1 
f 212/4/1 92/2/1 91/1/1 
f 92/1/1 212/3/1 213/4/1 
f 213/4/1 93/2/1 92/1/1 
f 93/1/1 213/3/1 214/4/1 
f 214/4/1 94/2/1 93/1/1 
f 94/1/1 214/3/1 215/4/1 
f 215/4/1 95/2/1 94/1/1 
f 95/1/1 215/3/1 216/4/1 
f 216/4/1 96/2/1 95/1/1 
f 96/1/1 216/3/1 217/4/1 
f 217/4/1 97/2/1 96/1/1 
f 97/1/1 217/3/1 218/4/1 
f 218/4/1 98/2/1 97/1/1 
f 98/1/1 218/3/1 219/4/1 
f 219/4/1 99/2/1 98/1/1 
f 99/1/1 219/3/1 220/4/1 
f 220/4/1 100/2/1 99/1/1 
f 100/1/1 220/3/1 221/4/1 
f 221/4/1 101/2/1 100/1/1 
f 101/1/1 221/3/1 222/4/1 
f 222/4/1 102/2/1 101/1/1 
f 102/1/1 222/3/1 223/4/1 
f 223/4/1 103/2/1 102/1/1 
f 103/1/1 223/3/1 224/4/1 
f 224/4/1 104/2/1 103/1/1 
f 104/1/1 224/3/1 225/4/1 
f 225/4/1 105/2/1 104/1/1 
f 105/1/1 225/3/1 226/4/1 
f 226/4/1 106/2/1 105/1/1 
f 106/1/1 226/3/1 227/4/1 
f 227/4/1 107/2/1 106/1/1 
f 107/1/1 227/3/1 228/4/1 
f 228/4/1 108/2/1 107/1/1 
f 108/1/1 228/3/1 229/4/1 
f 229/4/1 109/2/1 108/1/1 
f 109/1/1 229/3/1 230/4/1 
f 230/4/1 110/2/1 109/1/1 
f 110/1/1 230/3/1 231/4/1 
f 231/4/1 111/2/1 110/1/1 
f 111/1/1 231/3/1 232/4/1 
f 232/4/1 112/2/1 111/1/1 
f 112/1/1 232/3/1 233/4/1 
f 233/4/1 113/2/1 112/1/1 
f 113/1/1 233/3/1 234/4/1 
f 234/4/1 114/2/1 113/1/1 
f 114/1/1 234/3/1 235/4/1 
f 235/4/1 115/2/1 114/1/1 
f 115/1/1 235/3/1 236/4/1 
f 236/4/1 116/2/1 115/1/1 
f 116/1/1 236/3/1 237/4/1 
f 237/4/1 117/2/1 116/1/1 
f 117/1/1 237/3/1 238/4/1 
f 238/4/1 118/2/1 117/1/1 
f 118/1/1 238/3/1 239/4/1 
f 239/4/1 119/2/1 118/1/1 
f 119/1/1 239/3/1 240/4/1 
f 240/4/1 120/2/1 119/1/1 
f 120/1/1 240/3/1 121/4/1 
f 121/4/1 1/2/1 120/1/1 
